<svg width="20" height="20" viewBox="0 0 20 20" fill="none" xmlns="http://www.w3.org/2000/svg">
<path d="M19.9406 11.0825L18.8916 7.94527C18.886 7.91639 18.8775 7.88811 18.8662 7.86086L16.7617 1.55534C16.7056 1.39266 16.5982 1.25137 16.4547 1.15165C16.3112 1.05192 16.1391 0.998854 15.9628 1.00002C15.787 0.998981 15.6155 1.05279 15.4734 1.15356C15.3313 1.25432 15.2262 1.39674 15.1733 1.55993L13.1673 7.56855H6.83587L4.82688 1.55993C4.77423 1.39731 4.6696 1.25529 4.52823 1.15458C4.38687 1.05387 4.21617 0.999718 4.04098 1.00002H4.03626C3.85981 1.00005 3.68785 1.05423 3.54485 1.15485C3.40185 1.25548 3.29509 1.39743 3.23975 1.56051L1.1334 7.87349C1.1334 7.87923 1.12868 7.88383 1.12691 7.88957L0.0589906 11.0831C-0.0194818 11.3173 -0.0196677 11.5697 0.0584603 11.804C0.136588 12.0384 0.28901 12.2425 0.49383 12.3873L9.72044 18.9127C9.80165 18.9699 9.89946 19.0005 9.99971 19C10.1 18.9995 10.1974 18.9679 10.278 18.9099L19.5064 12.3873C19.7113 12.2425 19.8637 12.0382 19.9418 11.8037C20.0198 11.5693 20.0194 11.3168 19.9406 11.0825ZM6.1491 8.49083L8.72096 16.1953L2.54707 8.49083H6.1491ZM11.2822 16.197L13.7485 8.8107L13.8547 8.49083H17.4596L11.874 15.4556L11.2822 16.197ZM15.971 2.15144L17.7782 7.56855H14.1609L15.971 2.15144ZM12.8611 8.48739L11.0692 13.8545L10.0001 17.0509L7.14327 8.48739H12.8611ZM4.03213 2.15144L5.84288 7.56855H2.22788L4.03213 2.15144ZM1.04903 11.6442C1.00551 11.6134 0.973151 11.5699 0.956612 11.5201C0.940072 11.4702 0.940204 11.4166 0.956989 11.3668L1.74997 8.99504L7.56572 16.2521L1.04903 11.6442ZM18.9518 11.6442L12.4345 16.2504L12.4563 16.2228L18.2503 8.99504L19.0432 11.3656C19.0602 11.4154 19.0605 11.4692 19.0441 11.5191C19.0276 11.5691 18.9953 11.6127 18.9518 11.6436" fill="currentColor"/>
</svg>
