<svg width="20" height="20" viewBox="0 0 20 20" fill="none" xmlns="http://www.w3.org/2000/svg">
<path d="M19.9406 11.3589L18.8916 8.13563C18.886 8.10595 18.8775 8.07689 18.8662 8.0489L16.7617 1.57056C16.7056 1.40342 16.5982 1.25826 16.4547 1.1558C16.3112 1.05335 16.1391 0.998823 15.9628 1.00002C15.787 0.998953 15.6155 1.05424 15.4734 1.15777C15.3313 1.26129 15.2262 1.40762 15.1733 1.57528L13.1673 7.74858H6.83587L4.82688 1.57528C4.77423 1.4082 4.6696 1.26229 4.52823 1.15882C4.38687 1.05534 4.21617 0.99971 4.04098 1.00002H4.03626C3.85981 1.00005 3.68785 1.05572 3.54485 1.1591C3.40185 1.26248 3.29509 1.40832 3.23975 1.57587L1.1334 8.06188C1.1334 8.06778 1.12868 8.0725 1.12691 8.0784L0.0589906 11.3595C-0.0194818 11.6001 -0.0196677 11.8594 0.0584603 12.1001C0.136588 12.3409 0.28901 12.5507 0.49383 12.6994L9.72044 19.4037C9.80165 19.4625 9.89946 19.4939 9.99971 19.4933C10.1 19.4928 10.1974 19.4604 10.278 19.4007L19.5064 12.6994C19.7113 12.5506 19.8637 12.3407 19.9418 12.0998C20.0198 11.8589 20.0194 11.5995 19.9406 11.3589ZM6.1491 8.69614L8.72096 16.6117L2.54707 8.69614H6.1491ZM11.2822 16.6135L13.7485 9.02478L13.8547 8.69614H17.4596L11.874 15.8518L11.2822 16.6135ZM15.971 2.18299L17.7782 7.74858H14.1609L15.971 2.18299ZM12.8611 8.6926L11.0692 14.2069L10.0001 17.4909L7.14327 8.6926H12.8611ZM4.03213 2.18299L5.84288 7.74858H2.22788L4.03213 2.18299ZM1.04903 11.9359C1.00551 11.9042 0.973151 11.8596 0.956612 11.8084C0.940072 11.7572 0.940204 11.702 0.956989 11.6509L1.74997 9.21417L7.56572 16.6702L1.04903 11.9359ZM18.9518 11.9359L12.4345 16.6684L12.4563 16.6401L18.2503 9.21417L19.0432 11.6497C19.0602 11.7009 19.0605 11.7561 19.0441 11.8074C19.0276 11.8588 18.9953 11.9035 18.9518 11.9353" fill="currentColor"/>
</svg>
