<svg width="413" height="298" viewBox="0 0 413 298" fill="none" xmlns="http://www.w3.org/2000/svg">
<rect width="413" height="298" fill="white"/>
<rect x="284.5" y="36.5" width="108" height="226" stroke="#726E8D"/>
<rect x="20.5" y="36.5" width="254" height="226" stroke="#726E8D"/>
<path d="M22.4434 18.4688L25.2324 25.4297L28.0215 18.4688H29.4805V27H28.3555V23.6777L28.4609 20.0918L25.6602 27H24.7988L22.0039 20.1094L22.1152 23.6777V27H20.9902V18.4688H22.4434ZM35.2109 27C35.1484 26.875 35.0977 26.6523 35.0586 26.332C34.5547 26.8555 33.9531 27.1172 33.2539 27.1172C32.6289 27.1172 32.1152 26.9414 31.7129 26.5898C31.3145 26.2344 31.1152 25.7852 31.1152 25.2422C31.1152 24.582 31.3652 24.0703 31.8652 23.707C32.3691 23.3398 33.0762 23.1562 33.9863 23.1562H35.041V22.6582C35.041 22.2793 34.9277 21.9785 34.7012 21.7559C34.4746 21.5293 34.1406 21.416 33.6992 21.416C33.3125 21.416 32.9883 21.5137 32.7266 21.709C32.4648 21.9043 32.334 22.1406 32.334 22.418H31.2441C31.2441 22.1016 31.3555 21.7969 31.5781 21.5039C31.8047 21.207 32.1094 20.9727 32.4922 20.8008C32.8789 20.6289 33.3027 20.543 33.7637 20.543C34.4941 20.543 35.0664 20.7266 35.4805 21.0938C35.8945 21.457 36.1094 21.959 36.125 22.5996V25.5176C36.125 26.0996 36.1992 26.5625 36.3477 26.9062V27H35.2109ZM33.4121 26.1738C33.752 26.1738 34.0742 26.0859 34.3789 25.9102C34.6836 25.7344 34.9043 25.5059 35.041 25.2246V23.9238H34.1914C32.8633 23.9238 32.1992 24.3125 32.1992 25.0898C32.1992 25.4297 32.3125 25.6953 32.5391 25.8867C32.7656 26.0781 33.0566 26.1738 33.4121 26.1738ZM39.002 27H37.918V20.6602H39.002V27ZM37.8301 18.9785C37.8301 18.8027 37.8828 18.6543 37.9883 18.5332C38.0977 18.4121 38.2578 18.3516 38.4688 18.3516C38.6797 18.3516 38.8398 18.4121 38.9492 18.5332C39.0586 18.6543 39.1133 18.8027 39.1133 18.9785C39.1133 19.1543 39.0586 19.3008 38.9492 19.418C38.8398 19.5352 38.6797 19.5938 38.4688 19.5938C38.2578 19.5938 38.0977 19.5352 37.9883 19.418C37.8828 19.3008 37.8301 19.1543 37.8301 18.9785ZM41.7676 20.6602L41.8027 21.457C42.2871 20.8477 42.9199 20.543 43.7012 20.543C45.041 20.543 45.7168 21.2988 45.7285 22.8105V27H44.6445V22.8047C44.6406 22.3477 44.5352 22.0098 44.3281 21.791C44.125 21.5723 43.8066 21.4629 43.373 21.4629C43.0215 21.4629 42.7129 21.5566 42.4473 21.7441C42.1816 21.9316 41.9746 22.1777 41.8262 22.4824V27H40.7422V20.6602H41.7676ZM50.5098 27V18.4688H53.2988C54.2246 18.4688 54.9199 18.6602 55.3848 19.043C55.8535 19.4258 56.0879 19.9922 56.0879 20.7422C56.0879 21.1406 55.9746 21.4941 55.748 21.8027C55.5215 22.1074 55.2129 22.3438 54.8223 22.5117C55.2832 22.6406 55.6465 22.8867 55.9121 23.25C56.1816 23.6094 56.3164 24.0391 56.3164 24.5391C56.3164 25.3047 56.0684 25.9062 55.5723 26.3438C55.0762 26.7812 54.375 27 53.4688 27H50.5098ZM51.6348 23.0098V26.0801H53.4922C54.0156 26.0801 54.4277 25.9453 54.7285 25.6758C55.0332 25.4023 55.1855 25.0273 55.1855 24.5508C55.1855 23.5234 54.627 23.0098 53.5098 23.0098H51.6348ZM51.6348 22.1074H53.334C53.8262 22.1074 54.2188 21.9844 54.5117 21.7383C54.8086 21.4922 54.957 21.1582 54.957 20.7363C54.957 20.2676 54.8203 19.9277 54.5469 19.7168C54.2734 19.502 53.8574 19.3945 53.2988 19.3945H51.6348V22.1074ZM57.5293 23.7715C57.5293 23.1504 57.6504 22.5918 57.8926 22.0957C58.1387 21.5996 58.4785 21.2168 58.9121 20.9473C59.3496 20.6777 59.8477 20.543 60.4062 20.543C61.2695 20.543 61.9668 20.8418 62.498 21.4395C63.0332 22.0371 63.3008 22.832 63.3008 23.8242V23.9004C63.3008 24.5176 63.1816 25.0723 62.9434 25.5645C62.709 26.0527 62.3711 26.4336 61.9297 26.707C61.4922 26.9805 60.9883 27.1172 60.418 27.1172C59.5586 27.1172 58.8613 26.8184 58.3262 26.2207C57.7949 25.623 57.5293 24.832 57.5293 23.8477V23.7715ZM58.6191 23.9004C58.6191 24.6035 58.7812 25.168 59.1055 25.5938C59.4336 26.0195 59.8711 26.2324 60.418 26.2324C60.9688 26.2324 61.4062 26.0176 61.7305 25.5879C62.0547 25.1543 62.2168 24.5488 62.2168 23.7715C62.2168 23.0762 62.0508 22.5137 61.7188 22.084C61.3906 21.6504 60.9531 21.4336 60.4062 21.4336C59.8711 21.4336 59.4395 21.6465 59.1113 22.0723C58.7832 22.498 58.6191 23.1074 58.6191 23.9004ZM64.3965 23.7773C64.3965 22.8047 64.627 22.0234 65.0879 21.4336C65.5488 20.8398 66.1523 20.543 66.8984 20.543C67.6406 20.543 68.2285 20.7969 68.6621 21.3047V18H69.7461V27H68.75L68.6973 26.3203C68.2637 26.8516 67.6602 27.1172 66.8867 27.1172C66.1523 27.1172 65.5527 26.8164 65.0879 26.2148C64.627 25.6133 64.3965 24.8281 64.3965 23.8594V23.7773ZM65.4805 23.9004C65.4805 24.6191 65.6289 25.1816 65.9258 25.5879C66.2227 25.9941 66.6328 26.1973 67.1562 26.1973C67.8438 26.1973 68.3457 25.8887 68.6621 25.2715V22.3594C68.3379 21.7617 67.8398 21.4629 67.168 21.4629C66.6367 21.4629 66.2227 21.668 65.9258 22.0781C65.6289 22.4883 65.4805 23.0957 65.4805 23.9004ZM73.5078 25.4121L74.9844 20.6602H76.1445L73.5957 27.9785C73.2012 29.0332 72.5742 29.5605 71.7148 29.5605L71.5098 29.543L71.1055 29.4668V28.5879L71.3984 28.6113C71.7656 28.6113 72.0508 28.5371 72.2539 28.3887C72.4609 28.2402 72.6309 27.9688 72.7637 27.5742L73.0039 26.9297L70.7422 20.6602H71.9258L73.5078 25.4121ZM86.5391 24.293C86.4336 25.1953 86.0996 25.8926 85.5371 26.3848C84.9785 26.873 84.2344 27.1172 83.3047 27.1172C82.2969 27.1172 81.4883 26.7559 80.8789 26.0332C80.2734 25.3105 79.9707 24.3438 79.9707 23.1328V22.3125C79.9707 21.5195 80.1113 20.8223 80.3926 20.2207C80.6777 19.6191 81.0801 19.1582 81.5996 18.8379C82.1191 18.5137 82.7207 18.3516 83.4043 18.3516C84.3105 18.3516 85.0371 18.6055 85.584 19.1133C86.1309 19.6172 86.4492 20.3164 86.5391 21.2109H85.4082C85.3105 20.5312 85.0977 20.0391 84.7695 19.7344C84.4453 19.4297 83.9902 19.2773 83.4043 19.2773C82.6855 19.2773 82.1211 19.543 81.7109 20.0742C81.3047 20.6055 81.1016 21.3613 81.1016 22.3418V23.168C81.1016 24.0938 81.2949 24.8301 81.6816 25.377C82.0684 25.9238 82.6094 26.1973 83.3047 26.1973C83.9297 26.1973 84.4082 26.0566 84.7402 25.7754C85.0762 25.4902 85.2988 24.9961 85.4082 24.293H86.5391ZM87.623 23.7715C87.623 23.1504 87.7441 22.5918 87.9863 22.0957C88.2324 21.5996 88.5723 21.2168 89.0059 20.9473C89.4434 20.6777 89.9414 20.543 90.5 20.543C91.3633 20.543 92.0605 20.8418 92.5918 21.4395C93.127 22.0371 93.3945 22.832 93.3945 23.8242V23.9004C93.3945 24.5176 93.2754 25.0723 93.0371 25.5645C92.8027 26.0527 92.4648 26.4336 92.0234 26.707C91.5859 26.9805 91.082 27.1172 90.5117 27.1172C89.6523 27.1172 88.9551 26.8184 88.4199 26.2207C87.8887 25.623 87.623 24.832 87.623 23.8477V23.7715ZM88.7129 23.9004C88.7129 24.6035 88.875 25.168 89.1992 25.5938C89.5273 26.0195 89.9648 26.2324 90.5117 26.2324C91.0625 26.2324 91.5 26.0176 91.8242 25.5879C92.1484 25.1543 92.3105 24.5488 92.3105 23.7715C92.3105 23.0762 92.1445 22.5137 91.8125 22.084C91.4844 21.6504 91.0469 21.4336 90.5 21.4336C89.9648 21.4336 89.5332 21.6465 89.2051 22.0723C88.877 22.498 88.7129 23.1074 88.7129 23.9004ZM95.7793 20.6602L95.8145 21.457C96.2988 20.8477 96.9316 20.543 97.7129 20.543C99.0527 20.543 99.7285 21.2988 99.7402 22.8105V27H98.6562V22.8047C98.6523 22.3477 98.5469 22.0098 98.3398 21.791C98.1367 21.5723 97.8184 21.4629 97.3848 21.4629C97.0332 21.4629 96.7246 21.5566 96.459 21.7441C96.1934 21.9316 95.9863 22.1777 95.8379 22.4824V27H94.7539V20.6602H95.7793ZM102.846 19.125V20.6602H104.029V21.498H102.846V25.4297C102.846 25.6836 102.898 25.875 103.004 26.0039C103.109 26.1289 103.289 26.1914 103.543 26.1914C103.668 26.1914 103.84 26.168 104.059 26.1211V27C103.773 27.0781 103.496 27.1172 103.227 27.1172C102.742 27.1172 102.377 26.9707 102.131 26.6777C101.885 26.3848 101.762 25.9688 101.762 25.4297V21.498H100.607V20.6602H101.762V19.125H102.846ZM109.215 27C109.152 26.875 109.102 26.6523 109.062 26.332C108.559 26.8555 107.957 27.1172 107.258 27.1172C106.633 27.1172 106.119 26.9414 105.717 26.5898C105.318 26.2344 105.119 25.7852 105.119 25.2422C105.119 24.582 105.369 24.0703 105.869 23.707C106.373 23.3398 107.08 23.1562 107.99 23.1562H109.045V22.6582C109.045 22.2793 108.932 21.9785 108.705 21.7559C108.479 21.5293 108.145 21.416 107.703 21.416C107.316 21.416 106.992 21.5137 106.73 21.709C106.469 21.9043 106.338 22.1406 106.338 22.418H105.248C105.248 22.1016 105.359 21.7969 105.582 21.5039C105.809 21.207 106.113 20.9727 106.496 20.8008C106.883 20.6289 107.307 20.543 107.768 20.543C108.498 20.543 109.07 20.7266 109.484 21.0938C109.898 21.457 110.113 21.959 110.129 22.5996V25.5176C110.129 26.0996 110.203 26.5625 110.352 26.9062V27H109.215ZM107.416 26.1738C107.756 26.1738 108.078 26.0859 108.383 25.9102C108.688 25.7344 108.908 25.5059 109.045 25.2246V23.9238H108.195C106.867 23.9238 106.203 24.3125 106.203 25.0898C106.203 25.4297 106.316 25.6953 106.543 25.8867C106.77 26.0781 107.061 26.1738 107.416 26.1738ZM113.006 27H111.922V20.6602H113.006V27ZM111.834 18.9785C111.834 18.8027 111.887 18.6543 111.992 18.5332C112.102 18.4121 112.262 18.3516 112.473 18.3516C112.684 18.3516 112.844 18.4121 112.953 18.5332C113.062 18.6543 113.117 18.8027 113.117 18.9785C113.117 19.1543 113.062 19.3008 112.953 19.418C112.844 19.5352 112.684 19.5938 112.473 19.5938C112.262 19.5938 112.102 19.5352 111.992 19.418C111.887 19.3008 111.834 19.1543 111.834 18.9785ZM115.771 20.6602L115.807 21.457C116.291 20.8477 116.924 20.543 117.705 20.543C119.045 20.543 119.721 21.2988 119.732 22.8105V27H118.648V22.8047C118.645 22.3477 118.539 22.0098 118.332 21.791C118.129 21.5723 117.811 21.4629 117.377 21.4629C117.025 21.4629 116.717 21.5566 116.451 21.7441C116.186 21.9316 115.979 22.1777 115.83 22.4824V27H114.746V20.6602H115.771ZM123.998 27.1172C123.139 27.1172 122.439 26.8359 121.9 26.2734C121.361 25.707 121.092 24.9512 121.092 24.0059V23.8066C121.092 23.1777 121.211 22.6172 121.449 22.125C121.691 21.6289 122.027 21.2422 122.457 20.9648C122.891 20.6836 123.359 20.543 123.863 20.543C124.688 20.543 125.328 20.8145 125.785 21.3574C126.242 21.9004 126.471 22.6777 126.471 23.6895V24.1406H122.176C122.191 24.7656 122.373 25.2715 122.721 25.6582C123.072 26.041 123.518 26.2324 124.057 26.2324C124.439 26.2324 124.764 26.1543 125.029 25.998C125.295 25.8418 125.527 25.6348 125.727 25.377L126.389 25.8926C125.857 26.709 125.061 27.1172 123.998 27.1172ZM123.863 21.4336C123.426 21.4336 123.059 21.5938 122.762 21.9141C122.465 22.2305 122.281 22.6758 122.211 23.25H125.387V23.168C125.355 22.6172 125.207 22.1914 124.941 21.8906C124.676 21.5859 124.316 21.4336 123.863 21.4336ZM130.795 21.6328C130.631 21.6055 130.453 21.5918 130.262 21.5918C129.551 21.5918 129.068 21.8945 128.814 22.5V27H127.73V20.6602H128.785L128.803 21.3926C129.158 20.8262 129.662 20.543 130.314 20.543C130.525 20.543 130.686 20.5703 130.795 20.625V21.6328Z" fill="black"/>
<path d="M287.504 23.1973C286.539 22.9199 285.836 22.5801 285.395 22.1777C284.957 21.7715 284.738 21.2715 284.738 20.6777C284.738 20.0059 285.006 19.4512 285.541 19.0137C286.08 18.5723 286.779 18.3516 287.639 18.3516C288.225 18.3516 288.746 18.4648 289.203 18.6914C289.664 18.918 290.02 19.2305 290.27 19.6289C290.523 20.0273 290.65 20.4629 290.65 20.9355H289.52C289.52 20.4199 289.355 20.0156 289.027 19.7227C288.699 19.4258 288.236 19.2773 287.639 19.2773C287.084 19.2773 286.65 19.4004 286.338 19.6465C286.029 19.8887 285.875 20.2266 285.875 20.6602C285.875 21.0078 286.021 21.3027 286.314 21.5449C286.611 21.7832 287.113 22.002 287.82 22.2012C288.531 22.4004 289.086 22.6211 289.484 22.8633C289.887 23.1016 290.184 23.3809 290.375 23.7012C290.57 24.0215 290.668 24.3984 290.668 24.832C290.668 25.5234 290.398 26.0781 289.859 26.4961C289.32 26.9102 288.6 27.1172 287.697 27.1172C287.111 27.1172 286.564 27.0059 286.057 26.7832C285.549 26.5566 285.156 26.248 284.879 25.8574C284.605 25.4668 284.469 25.0234 284.469 24.5273H285.6C285.6 25.043 285.789 25.4512 286.168 25.752C286.551 26.0488 287.061 26.1973 287.697 26.1973C288.291 26.1973 288.746 26.0762 289.062 25.834C289.379 25.5918 289.537 25.2617 289.537 24.8438C289.537 24.4258 289.391 24.1035 289.098 23.877C288.805 23.6465 288.273 23.4199 287.504 23.1973ZM293.123 27H292.039V18H293.123V27ZM296.041 27H294.957V20.6602H296.041V27ZM294.869 18.9785C294.869 18.8027 294.922 18.6543 295.027 18.5332C295.137 18.4121 295.297 18.3516 295.508 18.3516C295.719 18.3516 295.879 18.4121 295.988 18.5332C296.098 18.6543 296.152 18.8027 296.152 18.9785C296.152 19.1543 296.098 19.3008 295.988 19.418C295.879 19.5352 295.719 19.5938 295.508 19.5938C295.297 19.5938 295.137 19.5352 295.027 19.418C294.922 19.3008 294.869 19.1543 294.869 18.9785ZM297.518 23.7773C297.518 22.8047 297.748 22.0234 298.209 21.4336C298.67 20.8398 299.273 20.543 300.02 20.543C300.762 20.543 301.35 20.7969 301.783 21.3047V18H302.867V27H301.871L301.818 26.3203C301.385 26.8516 300.781 27.1172 300.008 27.1172C299.273 27.1172 298.674 26.8164 298.209 26.2148C297.748 25.6133 297.518 24.8281 297.518 23.8594V23.7773ZM298.602 23.9004C298.602 24.6191 298.75 25.1816 299.047 25.5879C299.344 25.9941 299.754 26.1973 300.277 26.1973C300.965 26.1973 301.467 25.8887 301.783 25.2715V22.3594C301.459 21.7617 300.961 21.4629 300.289 21.4629C299.758 21.4629 299.344 21.668 299.047 22.0781C298.75 22.4883 298.602 23.0957 298.602 23.9004ZM307.186 27.1172C306.326 27.1172 305.627 26.8359 305.088 26.2734C304.549 25.707 304.279 24.9512 304.279 24.0059V23.8066C304.279 23.1777 304.398 22.6172 304.637 22.125C304.879 21.6289 305.215 21.2422 305.645 20.9648C306.078 20.6836 306.547 20.543 307.051 20.543C307.875 20.543 308.516 20.8145 308.973 21.3574C309.43 21.9004 309.658 22.6777 309.658 23.6895V24.1406H305.363C305.379 24.7656 305.561 25.2715 305.908 25.6582C306.26 26.041 306.705 26.2324 307.244 26.2324C307.627 26.2324 307.951 26.1543 308.217 25.998C308.482 25.8418 308.715 25.6348 308.914 25.377L309.576 25.8926C309.045 26.709 308.248 27.1172 307.186 27.1172ZM307.051 21.4336C306.613 21.4336 306.246 21.5938 305.949 21.9141C305.652 22.2305 305.469 22.6758 305.398 23.25H308.574V23.168C308.543 22.6172 308.395 22.1914 308.129 21.8906C307.863 21.5859 307.504 21.4336 307.051 21.4336ZM320.627 23.0098C320.627 23.8457 320.486 24.5762 320.205 25.2012C319.924 25.8223 319.525 26.2969 319.01 26.625C318.494 26.9531 317.893 27.1172 317.205 27.1172C316.533 27.1172 315.938 26.9531 315.418 26.625C314.898 26.293 314.494 25.8223 314.205 25.2129C313.92 24.5996 313.773 23.8906 313.766 23.0859V22.4707C313.766 21.6504 313.908 20.9258 314.193 20.2969C314.479 19.668 314.881 19.1875 315.4 18.8555C315.924 18.5195 316.521 18.3516 317.193 18.3516C317.877 18.3516 318.479 18.5176 318.998 18.8496C319.521 19.1777 319.924 19.6562 320.205 20.2852C320.486 20.9102 320.627 21.6387 320.627 22.4707V23.0098ZM319.508 22.459C319.508 21.4473 319.305 20.6719 318.898 20.1328C318.492 19.5898 317.924 19.3184 317.193 19.3184C316.482 19.3184 315.922 19.5898 315.512 20.1328C315.105 20.6719 314.896 21.4219 314.885 22.3828V23.0098C314.885 23.9902 315.09 24.7617 315.5 25.3242C315.914 25.8828 316.482 26.1621 317.205 26.1621C317.932 26.1621 318.494 25.8984 318.893 25.3711C319.291 24.8398 319.496 24.0801 319.508 23.0918V22.459ZM326.059 26.373C325.637 26.8691 325.018 27.1172 324.201 27.1172C323.525 27.1172 323.01 26.9219 322.654 26.5312C322.303 26.1367 322.125 25.5547 322.121 24.7852V20.6602H323.205V24.7559C323.205 25.7168 323.596 26.1973 324.377 26.1973C325.205 26.1973 325.756 25.8887 326.029 25.2715V20.6602H327.113V27H326.082L326.059 26.373ZM330.236 19.125V20.6602H331.42V21.498H330.236V25.4297C330.236 25.6836 330.289 25.875 330.395 26.0039C330.5 26.1289 330.68 26.1914 330.934 26.1914C331.059 26.1914 331.23 26.168 331.449 26.1211V27C331.164 27.0781 330.887 27.1172 330.617 27.1172C330.133 27.1172 329.768 26.9707 329.521 26.6777C329.275 26.3848 329.152 25.9688 329.152 25.4297V21.498H327.998V20.6602H329.152V19.125H330.236ZM342.113 24.293C342.008 25.1953 341.674 25.8926 341.111 26.3848C340.553 26.873 339.809 27.1172 338.879 27.1172C337.871 27.1172 337.062 26.7559 336.453 26.0332C335.848 25.3105 335.545 24.3438 335.545 23.1328V22.3125C335.545 21.5195 335.686 20.8223 335.967 20.2207C336.252 19.6191 336.654 19.1582 337.174 18.8379C337.693 18.5137 338.295 18.3516 338.979 18.3516C339.885 18.3516 340.611 18.6055 341.158 19.1133C341.705 19.6172 342.023 20.3164 342.113 21.2109H340.982C340.885 20.5312 340.672 20.0391 340.344 19.7344C340.02 19.4297 339.564 19.2773 338.979 19.2773C338.26 19.2773 337.695 19.543 337.285 20.0742C336.879 20.6055 336.676 21.3613 336.676 22.3418V23.168C336.676 24.0938 336.869 24.8301 337.256 25.377C337.643 25.9238 338.184 26.1973 338.879 26.1973C339.504 26.1973 339.982 26.0566 340.314 25.7754C340.65 25.4902 340.873 24.9961 340.982 24.293H342.113ZM343.197 23.7715C343.197 23.1504 343.318 22.5918 343.561 22.0957C343.807 21.5996 344.146 21.2168 344.58 20.9473C345.018 20.6777 345.516 20.543 346.074 20.543C346.938 20.543 347.635 20.8418 348.166 21.4395C348.701 22.0371 348.969 22.832 348.969 23.8242V23.9004C348.969 24.5176 348.85 25.0723 348.611 25.5645C348.377 26.0527 348.039 26.4336 347.598 26.707C347.16 26.9805 346.656 27.1172 346.086 27.1172C345.227 27.1172 344.529 26.8184 343.994 26.2207C343.463 25.623 343.197 24.832 343.197 23.8477V23.7715ZM344.287 23.9004C344.287 24.6035 344.449 25.168 344.773 25.5938C345.102 26.0195 345.539 26.2324 346.086 26.2324C346.637 26.2324 347.074 26.0176 347.398 25.5879C347.723 25.1543 347.885 24.5488 347.885 23.7715C347.885 23.0762 347.719 22.5137 347.387 22.084C347.059 21.6504 346.621 21.4336 346.074 21.4336C345.539 21.4336 345.107 21.6465 344.779 22.0723C344.451 22.498 344.287 23.1074 344.287 23.9004ZM351.354 20.6602L351.389 21.457C351.873 20.8477 352.506 20.543 353.287 20.543C354.627 20.543 355.303 21.2988 355.314 22.8105V27H354.23V22.8047C354.227 22.3477 354.121 22.0098 353.914 21.791C353.711 21.5723 353.393 21.4629 352.959 21.4629C352.607 21.4629 352.299 21.5566 352.033 21.7441C351.768 21.9316 351.561 22.1777 351.412 22.4824V27H350.328V20.6602H351.354ZM358.42 19.125V20.6602H359.604V21.498H358.42V25.4297C358.42 25.6836 358.473 25.875 358.578 26.0039C358.684 26.1289 358.863 26.1914 359.117 26.1914C359.242 26.1914 359.414 26.168 359.633 26.1211V27C359.348 27.0781 359.07 27.1172 358.801 27.1172C358.316 27.1172 357.951 26.9707 357.705 26.6777C357.459 26.3848 357.336 25.9688 357.336 25.4297V21.498H356.182V20.6602H357.336V19.125H358.42ZM364.789 27C364.727 26.875 364.676 26.6523 364.637 26.332C364.133 26.8555 363.531 27.1172 362.832 27.1172C362.207 27.1172 361.693 26.9414 361.291 26.5898C360.893 26.2344 360.693 25.7852 360.693 25.2422C360.693 24.582 360.943 24.0703 361.443 23.707C361.947 23.3398 362.654 23.1562 363.564 23.1562H364.619V22.6582C364.619 22.2793 364.506 21.9785 364.279 21.7559C364.053 21.5293 363.719 21.416 363.277 21.416C362.891 21.416 362.566 21.5137 362.305 21.709C362.043 21.9043 361.912 22.1406 361.912 22.418H360.822C360.822 22.1016 360.934 21.7969 361.156 21.5039C361.383 21.207 361.688 20.9727 362.07 20.8008C362.457 20.6289 362.881 20.543 363.342 20.543C364.072 20.543 364.645 20.7266 365.059 21.0938C365.473 21.457 365.688 21.959 365.703 22.5996V25.5176C365.703 26.0996 365.777 26.5625 365.926 26.9062V27H364.789ZM362.99 26.1738C363.33 26.1738 363.652 26.0859 363.957 25.9102C364.262 25.7344 364.482 25.5059 364.619 25.2246V23.9238H363.77C362.441 23.9238 361.777 24.3125 361.777 25.0898C361.777 25.4297 361.891 25.6953 362.117 25.8867C362.344 26.0781 362.635 26.1738 362.99 26.1738ZM368.58 27H367.496V20.6602H368.58V27ZM367.408 18.9785C367.408 18.8027 367.461 18.6543 367.566 18.5332C367.676 18.4121 367.836 18.3516 368.047 18.3516C368.258 18.3516 368.418 18.4121 368.527 18.5332C368.637 18.6543 368.691 18.8027 368.691 18.9785C368.691 19.1543 368.637 19.3008 368.527 19.418C368.418 19.5352 368.258 19.5938 368.047 19.5938C367.836 19.5938 367.676 19.5352 367.566 19.418C367.461 19.3008 367.408 19.1543 367.408 18.9785ZM371.346 20.6602L371.381 21.457C371.865 20.8477 372.498 20.543 373.279 20.543C374.619 20.543 375.295 21.2988 375.307 22.8105V27H374.223V22.8047C374.219 22.3477 374.113 22.0098 373.906 21.791C373.703 21.5723 373.385 21.4629 372.951 21.4629C372.6 21.4629 372.291 21.5566 372.025 21.7441C371.76 21.9316 371.553 22.1777 371.404 22.4824V27H370.32V20.6602H371.346ZM379.572 27.1172C378.713 27.1172 378.014 26.8359 377.475 26.2734C376.936 25.707 376.666 24.9512 376.666 24.0059V23.8066C376.666 23.1777 376.785 22.6172 377.023 22.125C377.266 21.6289 377.602 21.2422 378.031 20.9648C378.465 20.6836 378.934 20.543 379.438 20.543C380.262 20.543 380.902 20.8145 381.359 21.3574C381.816 21.9004 382.045 22.6777 382.045 23.6895V24.1406H377.75C377.766 24.7656 377.947 25.2715 378.295 25.6582C378.646 26.041 379.092 26.2324 379.631 26.2324C380.014 26.2324 380.338 26.1543 380.604 25.998C380.869 25.8418 381.102 25.6348 381.301 25.377L381.963 25.8926C381.432 26.709 380.635 27.1172 379.572 27.1172ZM379.438 21.4336C379 21.4336 378.633 21.5938 378.336 21.9141C378.039 22.2305 377.855 22.6758 377.785 23.25H380.961V23.168C380.93 22.6172 380.781 22.1914 380.516 21.8906C380.25 21.5859 379.891 21.4336 379.438 21.4336ZM386.369 21.6328C386.205 21.6055 386.027 21.5918 385.836 21.5918C385.125 21.5918 384.643 21.8945 384.389 22.5V27H383.305V20.6602H384.359L384.377 21.3926C384.732 20.8262 385.236 20.543 385.889 20.543C386.1 20.543 386.26 20.5703 386.369 20.625V21.6328Z" fill="black"/>
<path d="M134.504 58.1973C133.539 57.9199 132.836 57.5801 132.395 57.1777C131.957 56.7715 131.738 56.2715 131.738 55.6777C131.738 55.0059 132.006 54.4512 132.541 54.0137C133.08 53.5723 133.779 53.3516 134.639 53.3516C135.225 53.3516 135.746 53.4648 136.203 53.6914C136.664 53.918 137.02 54.2305 137.27 54.6289C137.523 55.0273 137.65 55.4629 137.65 55.9355H136.52C136.52 55.4199 136.355 55.0156 136.027 54.7227C135.699 54.4258 135.236 54.2773 134.639 54.2773C134.084 54.2773 133.65 54.4004 133.338 54.6465C133.029 54.8887 132.875 55.2266 132.875 55.6602C132.875 56.0078 133.021 56.3027 133.314 56.5449C133.611 56.7832 134.113 57.002 134.82 57.2012C135.531 57.4004 136.086 57.6211 136.484 57.8633C136.887 58.1016 137.184 58.3809 137.375 58.7012C137.57 59.0215 137.668 59.3984 137.668 59.832C137.668 60.5234 137.398 61.0781 136.859 61.4961C136.32 61.9102 135.6 62.1172 134.697 62.1172C134.111 62.1172 133.564 62.0059 133.057 61.7832C132.549 61.5566 132.156 61.248 131.879 60.8574C131.605 60.4668 131.469 60.0234 131.469 59.5273H132.6C132.6 60.043 132.789 60.4512 133.168 60.752C133.551 61.0488 134.061 61.1973 134.697 61.1973C135.291 61.1973 135.746 61.0762 136.062 60.834C136.379 60.5918 136.537 60.2617 136.537 59.8438C136.537 59.4258 136.391 59.1035 136.098 58.877C135.805 58.6465 135.273 58.4199 134.504 58.1973ZM140.416 54.125V55.6602H141.6V56.498H140.416V60.4297C140.416 60.6836 140.469 60.875 140.574 61.0039C140.68 61.1289 140.859 61.1914 141.113 61.1914C141.238 61.1914 141.41 61.168 141.629 61.1211V62C141.344 62.0781 141.066 62.1172 140.797 62.1172C140.312 62.1172 139.947 61.9707 139.701 61.6777C139.455 61.3848 139.332 60.9688 139.332 60.4297V56.498H138.178V55.6602H139.332V54.125H140.416ZM146.785 62C146.723 61.875 146.672 61.6523 146.633 61.332C146.129 61.8555 145.527 62.1172 144.828 62.1172C144.203 62.1172 143.689 61.9414 143.287 61.5898C142.889 61.2344 142.689 60.7852 142.689 60.2422C142.689 59.582 142.939 59.0703 143.439 58.707C143.943 58.3398 144.65 58.1562 145.561 58.1562H146.615V57.6582C146.615 57.2793 146.502 56.9785 146.275 56.7559C146.049 56.5293 145.715 56.416 145.273 56.416C144.887 56.416 144.562 56.5137 144.301 56.709C144.039 56.9043 143.908 57.1406 143.908 57.418H142.818C142.818 57.1016 142.93 56.7969 143.152 56.5039C143.379 56.207 143.684 55.9727 144.066 55.8008C144.453 55.6289 144.877 55.543 145.338 55.543C146.068 55.543 146.641 55.7266 147.055 56.0938C147.469 56.457 147.684 56.959 147.699 57.5996V60.5176C147.699 61.0996 147.773 61.5625 147.922 61.9062V62H146.785ZM144.986 61.1738C145.326 61.1738 145.648 61.0859 145.953 60.9102C146.258 60.7344 146.479 60.5059 146.615 60.2246V58.9238H145.766C144.438 58.9238 143.773 59.3125 143.773 60.0898C143.773 60.4297 143.887 60.6953 144.113 60.8867C144.34 61.0781 144.631 61.1738 144.986 61.1738ZM150.869 54.125V55.6602H152.053V56.498H150.869V60.4297C150.869 60.6836 150.922 60.875 151.027 61.0039C151.133 61.1289 151.312 61.1914 151.566 61.1914C151.691 61.1914 151.863 61.168 152.082 61.1211V62C151.797 62.0781 151.52 62.1172 151.25 62.1172C150.766 62.1172 150.4 61.9707 150.154 61.6777C149.908 61.3848 149.785 60.9688 149.785 60.4297V56.498H148.631V55.6602H149.785V54.125H150.869ZM155.955 62.1172C155.096 62.1172 154.396 61.8359 153.857 61.2734C153.318 60.707 153.049 59.9512 153.049 59.0059V58.8066C153.049 58.1777 153.168 57.6172 153.406 57.125C153.648 56.6289 153.984 56.2422 154.414 55.9648C154.848 55.6836 155.316 55.543 155.82 55.543C156.645 55.543 157.285 55.8145 157.742 56.3574C158.199 56.9004 158.428 57.6777 158.428 58.6895V59.1406H154.133C154.148 59.7656 154.33 60.2715 154.678 60.6582C155.029 61.041 155.475 61.2324 156.014 61.2324C156.396 61.2324 156.721 61.1543 156.986 60.998C157.252 60.8418 157.484 60.6348 157.684 60.377L158.346 60.8926C157.814 61.709 157.018 62.1172 155.955 62.1172ZM155.82 56.4336C155.383 56.4336 155.016 56.5938 154.719 56.9141C154.422 57.2305 154.238 57.6758 154.168 58.25H157.344V58.168C157.312 57.6172 157.164 57.1914 156.898 56.8906C156.633 56.5859 156.273 56.4336 155.82 56.4336Z" fill="black"/>
<path d="M146.646 126.354C146.842 126.549 147.158 126.549 147.354 126.354L150.536 123.172C150.731 122.976 150.731 122.66 150.536 122.464C150.34 122.269 150.024 122.269 149.828 122.464L147 125.293L144.172 122.464C143.976 122.269 143.66 122.269 143.464 122.464C143.269 122.66 143.269 122.976 143.464 123.172L146.646 126.354ZM146.5 76L146.5 126L147.5 126L147.5 76L146.5 76Z" fill="#726E8D"/>
<path d="M330.504 58.1973C329.539 57.9199 328.836 57.5801 328.395 57.1777C327.957 56.7715 327.738 56.2715 327.738 55.6777C327.738 55.0059 328.006 54.4512 328.541 54.0137C329.08 53.5723 329.779 53.3516 330.639 53.3516C331.225 53.3516 331.746 53.4648 332.203 53.6914C332.664 53.918 333.02 54.2305 333.27 54.6289C333.523 55.0273 333.65 55.4629 333.65 55.9355H332.52C332.52 55.4199 332.355 55.0156 332.027 54.7227C331.699 54.4258 331.236 54.2773 330.639 54.2773C330.084 54.2773 329.65 54.4004 329.338 54.6465C329.029 54.8887 328.875 55.2266 328.875 55.6602C328.875 56.0078 329.021 56.3027 329.314 56.5449C329.611 56.7832 330.113 57.002 330.82 57.2012C331.531 57.4004 332.086 57.6211 332.484 57.8633C332.887 58.1016 333.184 58.3809 333.375 58.7012C333.57 59.0215 333.668 59.3984 333.668 59.832C333.668 60.5234 333.398 61.0781 332.859 61.4961C332.32 61.9102 331.6 62.1172 330.697 62.1172C330.111 62.1172 329.564 62.0059 329.057 61.7832C328.549 61.5566 328.156 61.248 327.879 60.8574C327.605 60.4668 327.469 60.0234 327.469 59.5273H328.6C328.6 60.043 328.789 60.4512 329.168 60.752C329.551 61.0488 330.061 61.1973 330.697 61.1973C331.291 61.1973 331.746 61.0762 332.062 60.834C332.379 60.5918 332.537 60.2617 332.537 59.8438C332.537 59.4258 332.391 59.1035 332.098 58.877C331.805 58.6465 331.273 58.4199 330.504 58.1973ZM336.416 54.125V55.6602H337.6V56.498H336.416V60.4297C336.416 60.6836 336.469 60.875 336.574 61.0039C336.68 61.1289 336.859 61.1914 337.113 61.1914C337.238 61.1914 337.41 61.168 337.629 61.1211V62C337.344 62.0781 337.066 62.1172 336.797 62.1172C336.312 62.1172 335.947 61.9707 335.701 61.6777C335.455 61.3848 335.332 60.9688 335.332 60.4297V56.498H334.178V55.6602H335.332V54.125H336.416ZM342.785 62C342.723 61.875 342.672 61.6523 342.633 61.332C342.129 61.8555 341.527 62.1172 340.828 62.1172C340.203 62.1172 339.689 61.9414 339.287 61.5898C338.889 61.2344 338.689 60.7852 338.689 60.2422C338.689 59.582 338.939 59.0703 339.439 58.707C339.943 58.3398 340.65 58.1562 341.561 58.1562H342.615V57.6582C342.615 57.2793 342.502 56.9785 342.275 56.7559C342.049 56.5293 341.715 56.416 341.273 56.416C340.887 56.416 340.562 56.5137 340.301 56.709C340.039 56.9043 339.908 57.1406 339.908 57.418H338.818C338.818 57.1016 338.93 56.7969 339.152 56.5039C339.379 56.207 339.684 55.9727 340.066 55.8008C340.453 55.6289 340.877 55.543 341.338 55.543C342.068 55.543 342.641 55.7266 343.055 56.0938C343.469 56.457 343.684 56.959 343.699 57.5996V60.5176C343.699 61.0996 343.773 61.5625 343.922 61.9062V62H342.785ZM340.986 61.1738C341.326 61.1738 341.648 61.0859 341.953 60.9102C342.258 60.7344 342.479 60.5059 342.615 60.2246V58.9238H341.766C340.438 58.9238 339.773 59.3125 339.773 60.0898C339.773 60.4297 339.887 60.6953 340.113 60.8867C340.34 61.0781 340.631 61.1738 340.986 61.1738ZM346.869 54.125V55.6602H348.053V56.498H346.869V60.4297C346.869 60.6836 346.922 60.875 347.027 61.0039C347.133 61.1289 347.312 61.1914 347.566 61.1914C347.691 61.1914 347.863 61.168 348.082 61.1211V62C347.797 62.0781 347.52 62.1172 347.25 62.1172C346.766 62.1172 346.4 61.9707 346.154 61.6777C345.908 61.3848 345.785 60.9688 345.785 60.4297V56.498H344.631V55.6602H345.785V54.125H346.869ZM351.955 62.1172C351.096 62.1172 350.396 61.8359 349.857 61.2734C349.318 60.707 349.049 59.9512 349.049 59.0059V58.8066C349.049 58.1777 349.168 57.6172 349.406 57.125C349.648 56.6289 349.984 56.2422 350.414 55.9648C350.848 55.6836 351.316 55.543 351.82 55.543C352.645 55.543 353.285 55.8145 353.742 56.3574C354.199 56.9004 354.428 57.6777 354.428 58.6895V59.1406H350.133C350.148 59.7656 350.33 60.2715 350.678 60.6582C351.029 61.041 351.475 61.2324 352.014 61.2324C352.396 61.2324 352.721 61.1543 352.986 60.998C353.252 60.8418 353.484 60.6348 353.684 60.377L354.346 60.8926C353.814 61.709 353.018 62.1172 351.955 62.1172ZM351.82 56.4336C351.383 56.4336 351.016 56.5938 350.719 56.9141C350.422 57.2305 350.238 57.6758 350.168 58.25H353.344V58.168C353.312 57.6172 353.164 57.1914 352.898 56.8906C352.633 56.5859 352.273 56.4336 351.82 56.4336Z" fill="black"/>
<path d="M342.646 126.354C342.842 126.549 343.158 126.549 343.354 126.354L346.536 123.172C346.731 122.976 346.731 122.66 346.536 122.464C346.34 122.269 346.024 122.269 345.828 122.464L343 125.293L340.172 122.464C339.976 122.269 339.66 122.269 339.464 122.464C339.269 122.66 339.269 122.976 339.464 123.172L342.646 126.354ZM342.5 76L342.5 126L343.5 126L343.5 76L342.5 76Z" fill="#726E8D"/>
<rect x="47.5" y="160.5" width="35" height="35" stroke="#726E8D"/>
<rect x="100.5" y="160.5" width="35" height="35" stroke="#726E8D"/>
<rect x="153.5" y="160.5" width="35" height="35" stroke="#726E8D"/>
<rect x="206.5" y="160.5" width="35" height="35" stroke="#726E8D"/>
<path d="M105.518 141.293C105.412 142.195 105.078 142.893 104.516 143.385C103.957 143.873 103.213 144.117 102.283 144.117C101.275 144.117 100.467 143.756 99.8574 143.033C99.252 142.311 98.9492 141.344 98.9492 140.133V139.312C98.9492 138.52 99.0898 137.822 99.3711 137.221C99.6562 136.619 100.059 136.158 100.578 135.838C101.098 135.514 101.699 135.352 102.383 135.352C103.289 135.352 104.016 135.605 104.562 136.113C105.109 136.617 105.428 137.316 105.518 138.211H104.387C104.289 137.531 104.076 137.039 103.748 136.734C103.424 136.43 102.969 136.277 102.383 136.277C101.664 136.277 101.1 136.543 100.689 137.074C100.283 137.605 100.08 138.361 100.08 139.342V140.168C100.08 141.094 100.273 141.83 100.66 142.377C101.047 142.924 101.588 143.197 102.283 143.197C102.908 143.197 103.387 143.057 103.719 142.775C104.055 142.49 104.277 141.996 104.387 141.293H105.518ZM107.973 138.428C108.453 137.838 109.078 137.543 109.848 137.543C111.188 137.543 111.863 138.299 111.875 139.811V144H110.791V139.805C110.787 139.348 110.682 139.01 110.475 138.791C110.271 138.572 109.953 138.463 109.52 138.463C109.168 138.463 108.859 138.557 108.594 138.744C108.328 138.932 108.121 139.178 107.973 139.482V144H106.889V135H107.973V138.428ZM114.676 144H113.592V137.66H114.676V144ZM113.504 135.979C113.504 135.803 113.557 135.654 113.662 135.533C113.771 135.412 113.932 135.352 114.143 135.352C114.354 135.352 114.514 135.412 114.623 135.533C114.732 135.654 114.787 135.803 114.787 135.979C114.787 136.154 114.732 136.301 114.623 136.418C114.514 136.535 114.354 136.594 114.143 136.594C113.932 136.594 113.771 136.535 113.662 136.418C113.557 136.301 113.504 136.154 113.504 135.979ZM117.594 144H116.51V135H117.594V144ZM119.07 140.777C119.07 139.805 119.301 139.023 119.762 138.434C120.223 137.84 120.826 137.543 121.572 137.543C122.314 137.543 122.902 137.797 123.336 138.305V135H124.42V144H123.424L123.371 143.32C122.938 143.852 122.334 144.117 121.561 144.117C120.826 144.117 120.227 143.816 119.762 143.215C119.301 142.613 119.07 141.828 119.07 140.859V140.777ZM120.154 140.9C120.154 141.619 120.303 142.182 120.6 142.588C120.896 142.994 121.307 143.197 121.83 143.197C122.518 143.197 123.02 142.889 123.336 142.271V139.359C123.012 138.762 122.514 138.463 121.842 138.463C121.311 138.463 120.896 138.668 120.6 139.078C120.303 139.488 120.154 140.096 120.154 140.9ZM135.529 141.293C135.424 142.195 135.09 142.893 134.527 143.385C133.969 143.873 133.225 144.117 132.295 144.117C131.287 144.117 130.479 143.756 129.869 143.033C129.264 142.311 128.961 141.344 128.961 140.133V139.312C128.961 138.52 129.102 137.822 129.383 137.221C129.668 136.619 130.07 136.158 130.59 135.838C131.109 135.514 131.711 135.352 132.395 135.352C133.301 135.352 134.027 135.605 134.574 136.113C135.121 136.617 135.439 137.316 135.529 138.211H134.398C134.301 137.531 134.088 137.039 133.76 136.734C133.436 136.43 132.98 136.277 132.395 136.277C131.676 136.277 131.111 136.543 130.701 137.074C130.295 137.605 130.092 138.361 130.092 139.342V140.168C130.092 141.094 130.285 141.83 130.672 142.377C131.059 142.924 131.6 143.197 132.295 143.197C132.92 143.197 133.398 143.057 133.73 142.775C134.066 142.49 134.289 141.996 134.398 141.293H135.529ZM136.613 140.771C136.613 140.15 136.734 139.592 136.977 139.096C137.223 138.6 137.562 138.217 137.996 137.947C138.434 137.678 138.932 137.543 139.49 137.543C140.354 137.543 141.051 137.842 141.582 138.439C142.117 139.037 142.385 139.832 142.385 140.824V140.9C142.385 141.518 142.266 142.072 142.027 142.564C141.793 143.053 141.455 143.434 141.014 143.707C140.576 143.98 140.072 144.117 139.502 144.117C138.643 144.117 137.945 143.818 137.41 143.221C136.879 142.623 136.613 141.832 136.613 140.848V140.771ZM137.703 140.9C137.703 141.604 137.865 142.168 138.189 142.594C138.518 143.02 138.955 143.232 139.502 143.232C140.053 143.232 140.49 143.018 140.814 142.588C141.139 142.154 141.301 141.549 141.301 140.771C141.301 140.076 141.135 139.514 140.803 139.084C140.475 138.65 140.037 138.434 139.49 138.434C138.955 138.434 138.523 138.646 138.195 139.072C137.867 139.498 137.703 140.107 137.703 140.9ZM144.764 137.66L144.793 138.363C145.258 137.816 145.885 137.543 146.674 137.543C147.561 137.543 148.164 137.883 148.484 138.562C148.695 138.258 148.969 138.012 149.305 137.824C149.645 137.637 150.045 137.543 150.506 137.543C151.896 137.543 152.604 138.279 152.627 139.752V144H151.543V139.816C151.543 139.363 151.439 139.025 151.232 138.803C151.025 138.576 150.678 138.463 150.189 138.463C149.787 138.463 149.453 138.584 149.188 138.826C148.922 139.064 148.768 139.387 148.725 139.793V144H147.635V139.846C147.635 138.924 147.184 138.463 146.281 138.463C145.57 138.463 145.084 138.766 144.822 139.371V144H143.738V137.66H144.764ZM159.623 140.9C159.623 141.865 159.402 142.643 158.961 143.232C158.52 143.822 157.922 144.117 157.168 144.117C156.398 144.117 155.793 143.873 155.352 143.385V146.438H154.268V137.66H155.258L155.311 138.363C155.752 137.816 156.365 137.543 157.15 137.543C157.912 137.543 158.514 137.83 158.955 138.404C159.4 138.979 159.623 139.777 159.623 140.801V140.9ZM158.539 140.777C158.539 140.062 158.387 139.498 158.082 139.084C157.777 138.67 157.359 138.463 156.828 138.463C156.172 138.463 155.68 138.754 155.352 139.336V142.365C155.676 142.943 156.172 143.232 156.84 143.232C157.359 143.232 157.771 143.027 158.076 142.617C158.385 142.203 158.539 141.59 158.539 140.777ZM160.719 140.771C160.719 140.15 160.84 139.592 161.082 139.096C161.328 138.6 161.668 138.217 162.102 137.947C162.539 137.678 163.037 137.543 163.596 137.543C164.459 137.543 165.156 137.842 165.688 138.439C166.223 139.037 166.49 139.832 166.49 140.824V140.9C166.49 141.518 166.371 142.072 166.133 142.564C165.898 143.053 165.561 143.434 165.119 143.707C164.682 143.98 164.178 144.117 163.607 144.117C162.748 144.117 162.051 143.818 161.516 143.221C160.984 142.623 160.719 141.832 160.719 140.848V140.771ZM161.809 140.9C161.809 141.604 161.971 142.168 162.295 142.594C162.623 143.02 163.061 143.232 163.607 143.232C164.158 143.232 164.596 143.018 164.92 142.588C165.244 142.154 165.406 141.549 165.406 140.771C165.406 140.076 165.24 139.514 164.908 139.084C164.58 138.65 164.143 138.434 163.596 138.434C163.061 138.434 162.629 138.646 162.301 139.072C161.973 139.498 161.809 140.107 161.809 140.9ZM168.875 137.66L168.91 138.457C169.395 137.848 170.027 137.543 170.809 137.543C172.148 137.543 172.824 138.299 172.836 139.811V144H171.752V139.805C171.748 139.348 171.643 139.01 171.436 138.791C171.232 138.572 170.914 138.463 170.48 138.463C170.129 138.463 169.82 138.557 169.555 138.744C169.289 138.932 169.082 139.178 168.934 139.482V144H167.85V137.66H168.875ZM177.102 144.117C176.242 144.117 175.543 143.836 175.004 143.273C174.465 142.707 174.195 141.951 174.195 141.006V140.807C174.195 140.178 174.314 139.617 174.553 139.125C174.795 138.629 175.131 138.242 175.561 137.965C175.994 137.684 176.463 137.543 176.967 137.543C177.791 137.543 178.432 137.814 178.889 138.357C179.346 138.9 179.574 139.678 179.574 140.689V141.141H175.279C175.295 141.766 175.477 142.271 175.824 142.658C176.176 143.041 176.621 143.232 177.16 143.232C177.543 143.232 177.867 143.154 178.133 142.998C178.398 142.842 178.631 142.635 178.83 142.377L179.492 142.893C178.961 143.709 178.164 144.117 177.102 144.117ZM176.967 138.434C176.529 138.434 176.162 138.594 175.865 138.914C175.568 139.23 175.385 139.676 175.314 140.25H178.49V140.168C178.459 139.617 178.311 139.191 178.045 138.891C177.779 138.586 177.42 138.434 176.967 138.434ZM181.859 137.66L181.895 138.457C182.379 137.848 183.012 137.543 183.793 137.543C185.133 137.543 185.809 138.299 185.82 139.811V144H184.736V139.805C184.732 139.348 184.627 139.01 184.42 138.791C184.217 138.572 183.898 138.463 183.465 138.463C183.113 138.463 182.805 138.557 182.539 138.744C182.273 138.932 182.066 139.178 181.918 139.482V144H180.834V137.66H181.859ZM188.926 136.125V137.66H190.109V138.498H188.926V142.43C188.926 142.684 188.979 142.875 189.084 143.004C189.189 143.129 189.369 143.191 189.623 143.191C189.748 143.191 189.92 143.168 190.139 143.121V144C189.854 144.078 189.576 144.117 189.307 144.117C188.822 144.117 188.457 143.971 188.211 143.678C187.965 143.385 187.842 142.969 187.842 142.43V138.498H186.688V137.66H187.842V136.125H188.926ZM195.072 142.318C195.072 142.025 194.961 141.799 194.738 141.639C194.52 141.475 194.135 141.334 193.584 141.217C193.037 141.1 192.602 140.959 192.277 140.795C191.957 140.631 191.719 140.436 191.562 140.209C191.41 139.982 191.334 139.713 191.334 139.4C191.334 138.881 191.553 138.441 191.99 138.082C192.432 137.723 192.994 137.543 193.678 137.543C194.396 137.543 194.979 137.729 195.424 138.1C195.873 138.471 196.098 138.945 196.098 139.523H195.008C195.008 139.227 194.881 138.971 194.627 138.756C194.377 138.541 194.061 138.434 193.678 138.434C193.283 138.434 192.975 138.52 192.752 138.691C192.529 138.863 192.418 139.088 192.418 139.365C192.418 139.627 192.521 139.824 192.729 139.957C192.936 140.09 193.309 140.217 193.848 140.338C194.391 140.459 194.83 140.604 195.166 140.771C195.502 140.939 195.75 141.143 195.91 141.381C196.074 141.615 196.156 141.902 196.156 142.242C196.156 142.809 195.93 143.264 195.477 143.607C195.023 143.947 194.436 144.117 193.713 144.117C193.205 144.117 192.756 144.027 192.365 143.848C191.975 143.668 191.668 143.418 191.445 143.098C191.227 142.773 191.117 142.424 191.117 142.049H192.201C192.221 142.412 192.365 142.701 192.635 142.916C192.908 143.127 193.268 143.232 193.713 143.232C194.123 143.232 194.451 143.15 194.697 142.986C194.947 142.818 195.072 142.596 195.072 142.318Z" fill="black"/>
<path d="M296.518 146.293C296.412 147.195 296.078 147.893 295.516 148.385C294.957 148.873 294.213 149.117 293.283 149.117C292.275 149.117 291.467 148.756 290.857 148.033C290.252 147.311 289.949 146.344 289.949 145.133V144.312C289.949 143.52 290.09 142.822 290.371 142.221C290.656 141.619 291.059 141.158 291.578 140.838C292.098 140.514 292.699 140.352 293.383 140.352C294.289 140.352 295.016 140.605 295.562 141.113C296.109 141.617 296.428 142.316 296.518 143.211H295.387C295.289 142.531 295.076 142.039 294.748 141.734C294.424 141.43 293.969 141.277 293.383 141.277C292.664 141.277 292.1 141.543 291.689 142.074C291.283 142.605 291.08 143.361 291.08 144.342V145.168C291.08 146.094 291.273 146.83 291.66 147.377C292.047 147.924 292.588 148.197 293.283 148.197C293.908 148.197 294.387 148.057 294.719 147.775C295.055 147.49 295.277 146.996 295.387 146.293H296.518ZM298.973 143.428C299.453 142.838 300.078 142.543 300.848 142.543C302.188 142.543 302.863 143.299 302.875 144.811V149H301.791V144.805C301.787 144.348 301.682 144.01 301.475 143.791C301.271 143.572 300.953 143.463 300.52 143.463C300.168 143.463 299.859 143.557 299.594 143.744C299.328 143.932 299.121 144.178 298.973 144.482V149H297.889V140H298.973V143.428ZM305.676 149H304.592V142.66H305.676V149ZM304.504 140.979C304.504 140.803 304.557 140.654 304.662 140.533C304.771 140.412 304.932 140.352 305.143 140.352C305.354 140.352 305.514 140.412 305.623 140.533C305.732 140.654 305.787 140.803 305.787 140.979C305.787 141.154 305.732 141.301 305.623 141.418C305.514 141.535 305.354 141.594 305.143 141.594C304.932 141.594 304.771 141.535 304.662 141.418C304.557 141.301 304.504 141.154 304.504 140.979ZM308.594 149H307.51V140H308.594V149ZM310.07 145.777C310.07 144.805 310.301 144.023 310.762 143.434C311.223 142.84 311.826 142.543 312.572 142.543C313.314 142.543 313.902 142.797 314.336 143.305V140H315.42V149H314.424L314.371 148.32C313.938 148.852 313.334 149.117 312.561 149.117C311.826 149.117 311.227 148.816 310.762 148.215C310.301 147.613 310.07 146.828 310.07 145.859V145.777ZM311.154 145.9C311.154 146.619 311.303 147.182 311.6 147.588C311.896 147.994 312.307 148.197 312.83 148.197C313.518 148.197 314.02 147.889 314.336 147.271V144.359C314.012 143.762 313.514 143.463 312.842 143.463C312.311 143.463 311.896 143.668 311.6 144.078C311.303 144.488 311.154 145.096 311.154 145.9ZM326.529 146.293C326.424 147.195 326.09 147.893 325.527 148.385C324.969 148.873 324.225 149.117 323.295 149.117C322.287 149.117 321.479 148.756 320.869 148.033C320.264 147.311 319.961 146.344 319.961 145.133V144.312C319.961 143.52 320.102 142.822 320.383 142.221C320.668 141.619 321.07 141.158 321.59 140.838C322.109 140.514 322.711 140.352 323.395 140.352C324.301 140.352 325.027 140.605 325.574 141.113C326.121 141.617 326.439 142.316 326.529 143.211H325.398C325.301 142.531 325.088 142.039 324.76 141.734C324.436 141.43 323.98 141.277 323.395 141.277C322.676 141.277 322.111 141.543 321.701 142.074C321.295 142.605 321.092 143.361 321.092 144.342V145.168C321.092 146.094 321.285 146.83 321.672 147.377C322.059 147.924 322.6 148.197 323.295 148.197C323.92 148.197 324.398 148.057 324.73 147.775C325.066 147.49 325.289 146.996 325.398 146.293H326.529ZM327.613 145.771C327.613 145.15 327.734 144.592 327.977 144.096C328.223 143.6 328.562 143.217 328.996 142.947C329.434 142.678 329.932 142.543 330.49 142.543C331.354 142.543 332.051 142.842 332.582 143.439C333.117 144.037 333.385 144.832 333.385 145.824V145.9C333.385 146.518 333.266 147.072 333.027 147.564C332.793 148.053 332.455 148.434 332.014 148.707C331.576 148.98 331.072 149.117 330.502 149.117C329.643 149.117 328.945 148.818 328.41 148.221C327.879 147.623 327.613 146.832 327.613 145.848V145.771ZM328.703 145.9C328.703 146.604 328.865 147.168 329.189 147.594C329.518 148.02 329.955 148.232 330.502 148.232C331.053 148.232 331.49 148.018 331.814 147.588C332.139 147.154 332.301 146.549 332.301 145.771C332.301 145.076 332.135 144.514 331.803 144.084C331.475 143.65 331.037 143.434 330.49 143.434C329.955 143.434 329.523 143.646 329.195 144.072C328.867 144.498 328.703 145.107 328.703 145.9ZM335.764 142.66L335.793 143.363C336.258 142.816 336.885 142.543 337.674 142.543C338.561 142.543 339.164 142.883 339.484 143.562C339.695 143.258 339.969 143.012 340.305 142.824C340.645 142.637 341.045 142.543 341.506 142.543C342.896 142.543 343.604 143.279 343.627 144.752V149H342.543V144.816C342.543 144.363 342.439 144.025 342.232 143.803C342.025 143.576 341.678 143.463 341.189 143.463C340.787 143.463 340.453 143.584 340.188 143.826C339.922 144.064 339.768 144.387 339.725 144.793V149H338.635V144.846C338.635 143.924 338.184 143.463 337.281 143.463C336.57 143.463 336.084 143.766 335.822 144.371V149H334.738V142.66H335.764ZM350.623 145.9C350.623 146.865 350.402 147.643 349.961 148.232C349.52 148.822 348.922 149.117 348.168 149.117C347.398 149.117 346.793 148.873 346.352 148.385V151.438H345.268V142.66H346.258L346.311 143.363C346.752 142.816 347.365 142.543 348.15 142.543C348.912 142.543 349.514 142.83 349.955 143.404C350.4 143.979 350.623 144.777 350.623 145.801V145.9ZM349.539 145.777C349.539 145.062 349.387 144.498 349.082 144.084C348.777 143.67 348.359 143.463 347.828 143.463C347.172 143.463 346.68 143.754 346.352 144.336V147.365C346.676 147.943 347.172 148.232 347.84 148.232C348.359 148.232 348.771 148.027 349.076 147.617C349.385 147.203 349.539 146.59 349.539 145.777ZM351.719 145.771C351.719 145.15 351.84 144.592 352.082 144.096C352.328 143.6 352.668 143.217 353.102 142.947C353.539 142.678 354.037 142.543 354.596 142.543C355.459 142.543 356.156 142.842 356.688 143.439C357.223 144.037 357.49 144.832 357.49 145.824V145.9C357.49 146.518 357.371 147.072 357.133 147.564C356.898 148.053 356.561 148.434 356.119 148.707C355.682 148.98 355.178 149.117 354.607 149.117C353.748 149.117 353.051 148.818 352.516 148.221C351.984 147.623 351.719 146.832 351.719 145.848V145.771ZM352.809 145.9C352.809 146.604 352.971 147.168 353.295 147.594C353.623 148.02 354.061 148.232 354.607 148.232C355.158 148.232 355.596 148.018 355.92 147.588C356.244 147.154 356.406 146.549 356.406 145.771C356.406 145.076 356.24 144.514 355.908 144.084C355.58 143.65 355.143 143.434 354.596 143.434C354.061 143.434 353.629 143.646 353.301 144.072C352.973 144.498 352.809 145.107 352.809 145.9ZM359.875 142.66L359.91 143.457C360.395 142.848 361.027 142.543 361.809 142.543C363.148 142.543 363.824 143.299 363.836 144.811V149H362.752V144.805C362.748 144.348 362.643 144.01 362.436 143.791C362.232 143.572 361.914 143.463 361.48 143.463C361.129 143.463 360.82 143.557 360.555 143.744C360.289 143.932 360.082 144.178 359.934 144.482V149H358.85V142.66H359.875ZM368.102 149.117C367.242 149.117 366.543 148.836 366.004 148.273C365.465 147.707 365.195 146.951 365.195 146.006V145.807C365.195 145.178 365.314 144.617 365.553 144.125C365.795 143.629 366.131 143.242 366.561 142.965C366.994 142.684 367.463 142.543 367.967 142.543C368.791 142.543 369.432 142.814 369.889 143.357C370.346 143.9 370.574 144.678 370.574 145.689V146.141H366.279C366.295 146.766 366.477 147.271 366.824 147.658C367.176 148.041 367.621 148.232 368.16 148.232C368.543 148.232 368.867 148.154 369.133 147.998C369.398 147.842 369.631 147.635 369.83 147.377L370.492 147.893C369.961 148.709 369.164 149.117 368.102 149.117ZM367.967 143.434C367.529 143.434 367.162 143.594 366.865 143.914C366.568 144.23 366.385 144.676 366.314 145.25H369.49V145.168C369.459 144.617 369.311 144.191 369.045 143.891C368.779 143.586 368.42 143.434 367.967 143.434ZM372.859 142.66L372.895 143.457C373.379 142.848 374.012 142.543 374.793 142.543C376.133 142.543 376.809 143.299 376.82 144.811V149H375.736V144.805C375.732 144.348 375.627 144.01 375.42 143.791C375.217 143.572 374.898 143.463 374.465 143.463C374.113 143.463 373.805 143.557 373.539 143.744C373.273 143.932 373.066 144.178 372.918 144.482V149H371.834V142.66H372.859ZM379.926 141.125V142.66H381.109V143.498H379.926V147.43C379.926 147.684 379.979 147.875 380.084 148.004C380.189 148.129 380.369 148.191 380.623 148.191C380.748 148.191 380.92 148.168 381.139 148.121V149C380.854 149.078 380.576 149.117 380.307 149.117C379.822 149.117 379.457 148.971 379.211 148.678C378.965 148.385 378.842 147.969 378.842 147.43V143.498H377.688V142.66H378.842V141.125H379.926ZM386.072 147.318C386.072 147.025 385.961 146.799 385.738 146.639C385.52 146.475 385.135 146.334 384.584 146.217C384.037 146.1 383.602 145.959 383.277 145.795C382.957 145.631 382.719 145.436 382.562 145.209C382.41 144.982 382.334 144.713 382.334 144.4C382.334 143.881 382.553 143.441 382.99 143.082C383.432 142.723 383.994 142.543 384.678 142.543C385.396 142.543 385.979 142.729 386.424 143.1C386.873 143.471 387.098 143.945 387.098 144.523H386.008C386.008 144.227 385.881 143.971 385.627 143.756C385.377 143.541 385.061 143.434 384.678 143.434C384.283 143.434 383.975 143.52 383.752 143.691C383.529 143.863 383.418 144.088 383.418 144.365C383.418 144.627 383.521 144.824 383.729 144.957C383.936 145.09 384.309 145.217 384.848 145.338C385.391 145.459 385.83 145.604 386.166 145.771C386.502 145.939 386.75 146.143 386.91 146.381C387.074 146.615 387.156 146.902 387.156 147.242C387.156 147.809 386.93 148.264 386.477 148.607C386.023 148.947 385.436 149.117 384.713 149.117C384.205 149.117 383.756 149.027 383.365 148.848C382.975 148.668 382.668 148.418 382.445 148.098C382.227 147.773 382.117 147.424 382.117 147.049H383.201C383.221 147.412 383.365 147.701 383.635 147.916C383.908 148.127 384.268 148.232 384.713 148.232C385.123 148.232 385.451 148.15 385.697 147.986C385.947 147.818 386.072 147.596 386.072 147.318Z" fill="black"/>
<rect x="47.5" y="160.5" width="35" height="35" stroke="#726E8D"/>
<rect x="321.5" y="207.5" width="35" height="35" stroke="#726E8D"/>
<rect x="321.5" y="160.5" width="35" height="35" stroke="#726E8D"/>
<rect x="100.5" y="160.5" width="35" height="35" stroke="#726E8D"/>
<rect x="153.5" y="160.5" width="35" height="35" stroke="#726E8D"/>
<rect x="206.5" y="160.5" width="35" height="35" stroke="#726E8D"/>
<path d="M105.812 210.057H102.115V213.08H106.41V214H100.99V205.469H106.352V206.395H102.115V209.137H105.812V210.057ZM109.58 212.529L111.15 207.66H112.258L109.984 214H109.158L106.861 207.66H107.969L109.58 212.529ZM115.85 214.117C114.99 214.117 114.291 213.836 113.752 213.273C113.213 212.707 112.943 211.951 112.943 211.006V210.807C112.943 210.178 113.062 209.617 113.301 209.125C113.543 208.629 113.879 208.242 114.309 207.965C114.742 207.684 115.211 207.543 115.715 207.543C116.539 207.543 117.18 207.814 117.637 208.357C118.094 208.9 118.322 209.678 118.322 210.689V211.141H114.027C114.043 211.766 114.225 212.271 114.572 212.658C114.924 213.041 115.369 213.232 115.908 213.232C116.291 213.232 116.615 213.154 116.881 212.998C117.146 212.842 117.379 212.635 117.578 212.377L118.24 212.893C117.709 213.709 116.912 214.117 115.85 214.117ZM115.715 208.434C115.277 208.434 114.91 208.594 114.613 208.914C114.316 209.23 114.133 209.676 114.062 210.25H117.238V210.168C117.207 209.617 117.059 209.191 116.793 208.891C116.527 208.586 116.168 208.434 115.715 208.434ZM120.607 207.66L120.643 208.457C121.127 207.848 121.76 207.543 122.541 207.543C123.881 207.543 124.557 208.299 124.568 209.811V214H123.484V209.805C123.48 209.348 123.375 209.01 123.168 208.791C122.965 208.572 122.646 208.463 122.213 208.463C121.861 208.463 121.553 208.557 121.287 208.744C121.021 208.932 120.814 209.178 120.666 209.482V214H119.582V207.66H120.607ZM127.674 206.125V207.66H128.857V208.498H127.674V212.43C127.674 212.684 127.727 212.875 127.832 213.004C127.938 213.129 128.117 213.191 128.371 213.191C128.496 213.191 128.668 213.168 128.887 213.121V214C128.602 214.078 128.324 214.117 128.055 214.117C127.57 214.117 127.205 213.971 126.959 213.678C126.713 213.385 126.59 212.969 126.59 212.43V208.498H125.436V207.66H126.59V206.125H127.674ZM136.404 210.549H134.4V214H133.27V205.469H136.094C137.055 205.469 137.793 205.688 138.309 206.125C138.828 206.562 139.088 207.199 139.088 208.035C139.088 208.566 138.943 209.029 138.654 209.424C138.369 209.818 137.971 210.113 137.459 210.309L139.463 213.93V214H138.256L136.404 210.549ZM134.4 209.629H136.129C136.688 209.629 137.131 209.484 137.459 209.195C137.791 208.906 137.957 208.52 137.957 208.035C137.957 207.508 137.799 207.104 137.482 206.822C137.17 206.541 136.717 206.398 136.123 206.395H134.4V209.629ZM143.131 214.117C142.271 214.117 141.572 213.836 141.033 213.273C140.494 212.707 140.225 211.951 140.225 211.006V210.807C140.225 210.178 140.344 209.617 140.582 209.125C140.824 208.629 141.16 208.242 141.59 207.965C142.023 207.684 142.492 207.543 142.996 207.543C143.82 207.543 144.461 207.814 144.918 208.357C145.375 208.9 145.604 209.678 145.604 210.689V211.141H141.309C141.324 211.766 141.506 212.271 141.854 212.658C142.205 213.041 142.65 213.232 143.189 213.232C143.572 213.232 143.896 213.154 144.162 212.998C144.428 212.842 144.66 212.635 144.859 212.377L145.521 212.893C144.99 213.709 144.193 214.117 143.131 214.117ZM142.996 208.434C142.559 208.434 142.191 208.594 141.895 208.914C141.598 209.23 141.414 209.676 141.344 210.25H144.52V210.168C144.488 209.617 144.34 209.191 144.074 208.891C143.809 208.586 143.449 208.434 142.996 208.434ZM146.6 210.777C146.6 209.781 146.828 208.994 147.285 208.416C147.742 207.834 148.355 207.543 149.125 207.543C149.875 207.543 150.467 207.795 150.9 208.299L150.947 207.66H151.943V216.438H150.859V213.414C150.422 213.883 149.84 214.117 149.113 214.117C148.348 214.117 147.736 213.82 147.279 213.227C146.826 212.629 146.6 211.838 146.6 210.854V210.777ZM147.684 210.9C147.684 211.627 147.836 212.197 148.141 212.611C148.449 213.025 148.863 213.232 149.383 213.232C150.027 213.232 150.52 212.947 150.859 212.377V209.271C150.516 208.713 150.027 208.434 149.395 208.434C148.871 208.434 148.455 208.643 148.146 209.061C147.838 209.475 147.684 210.088 147.684 210.9ZM157.598 213.373C157.176 213.869 156.557 214.117 155.74 214.117C155.064 214.117 154.549 213.922 154.193 213.531C153.842 213.137 153.664 212.555 153.66 211.785V207.66H154.744V211.756C154.744 212.717 155.135 213.197 155.916 213.197C156.744 213.197 157.295 212.889 157.568 212.271V207.66H158.652V214H157.621L157.598 213.373ZM162.936 214.117C162.076 214.117 161.377 213.836 160.838 213.273C160.299 212.707 160.029 211.951 160.029 211.006V210.807C160.029 210.178 160.148 209.617 160.387 209.125C160.629 208.629 160.965 208.242 161.395 207.965C161.828 207.684 162.297 207.543 162.801 207.543C163.625 207.543 164.266 207.814 164.723 208.357C165.18 208.9 165.408 209.678 165.408 210.689V211.141H161.113C161.129 211.766 161.311 212.271 161.658 212.658C162.01 213.041 162.455 213.232 162.994 213.232C163.377 213.232 163.701 213.154 163.967 212.998C164.232 212.842 164.465 212.635 164.664 212.377L165.326 212.893C164.795 213.709 163.998 214.117 162.936 214.117ZM162.801 208.434C162.363 208.434 161.996 208.594 161.699 208.914C161.402 209.23 161.219 209.676 161.148 210.25H164.324V210.168C164.293 209.617 164.145 209.191 163.879 208.891C163.613 208.586 163.254 208.434 162.801 208.434ZM170.359 212.318C170.359 212.025 170.248 211.799 170.025 211.639C169.807 211.475 169.422 211.334 168.871 211.217C168.324 211.1 167.889 210.959 167.564 210.795C167.244 210.631 167.006 210.436 166.85 210.209C166.697 209.982 166.621 209.713 166.621 209.4C166.621 208.881 166.84 208.441 167.277 208.082C167.719 207.723 168.281 207.543 168.965 207.543C169.684 207.543 170.266 207.729 170.711 208.1C171.16 208.471 171.385 208.945 171.385 209.523H170.295C170.295 209.227 170.168 208.971 169.914 208.756C169.664 208.541 169.348 208.434 168.965 208.434C168.57 208.434 168.262 208.52 168.039 208.691C167.816 208.863 167.705 209.088 167.705 209.365C167.705 209.627 167.809 209.824 168.016 209.957C168.223 210.09 168.596 210.217 169.135 210.338C169.678 210.459 170.117 210.604 170.453 210.771C170.789 210.939 171.037 211.143 171.197 211.381C171.361 211.615 171.443 211.902 171.443 212.242C171.443 212.809 171.217 213.264 170.764 213.607C170.311 213.947 169.723 214.117 169 214.117C168.492 214.117 168.043 214.027 167.652 213.848C167.262 213.668 166.955 213.418 166.732 213.098C166.514 212.773 166.404 212.424 166.404 212.049H167.488C167.508 212.412 167.652 212.701 167.922 212.916C168.195 213.127 168.555 213.232 169 213.232C169.41 213.232 169.738 213.15 169.984 212.986C170.234 212.818 170.359 212.596 170.359 212.318ZM174.326 206.125V207.66H175.51V208.498H174.326V212.43C174.326 212.684 174.379 212.875 174.484 213.004C174.59 213.129 174.77 213.191 175.023 213.191C175.148 213.191 175.32 213.168 175.539 213.121V214C175.254 214.078 174.977 214.117 174.707 214.117C174.223 214.117 173.857 213.971 173.611 213.678C173.365 213.385 173.242 212.969 173.242 212.43V208.498H172.088V207.66H173.242V206.125H174.326ZM177.959 214H176.875V207.66H177.959V214ZM176.787 205.979C176.787 205.803 176.84 205.654 176.945 205.533C177.055 205.412 177.215 205.352 177.426 205.352C177.637 205.352 177.797 205.412 177.906 205.533C178.016 205.654 178.07 205.803 178.07 205.979C178.07 206.154 178.016 206.301 177.906 206.418C177.797 206.535 177.637 206.594 177.426 206.594C177.215 206.594 177.055 206.535 176.945 206.418C176.84 206.301 176.787 206.154 176.787 205.979ZM180.725 207.66L180.76 208.457C181.244 207.848 181.877 207.543 182.658 207.543C183.998 207.543 184.674 208.299 184.686 209.811V214H183.602V209.805C183.598 209.348 183.492 209.01 183.285 208.791C183.082 208.572 182.764 208.463 182.33 208.463C181.979 208.463 181.67 208.557 181.404 208.744C181.139 208.932 180.932 209.178 180.783 209.482V214H179.699V207.66H180.725ZM186.062 210.777C186.062 209.789 186.291 209.004 186.748 208.422C187.205 207.836 187.811 207.543 188.564 207.543C189.338 207.543 189.941 207.816 190.375 208.363L190.428 207.66H191.418V213.848C191.418 214.668 191.174 215.314 190.686 215.787C190.201 216.26 189.549 216.496 188.729 216.496C188.271 216.496 187.824 216.398 187.387 216.203C186.949 216.008 186.615 215.74 186.385 215.4L186.947 214.75C187.412 215.324 187.98 215.611 188.652 215.611C189.18 215.611 189.59 215.463 189.883 215.166C190.18 214.869 190.328 214.451 190.328 213.912V213.367C189.895 213.867 189.303 214.117 188.553 214.117C187.811 214.117 187.209 213.818 186.748 213.221C186.291 212.623 186.062 211.809 186.062 210.777ZM187.152 210.9C187.152 211.615 187.299 212.178 187.592 212.588C187.885 212.994 188.295 213.197 188.822 213.197C189.506 213.197 190.008 212.887 190.328 212.266V209.371C189.996 208.766 189.498 208.463 188.834 208.463C188.307 208.463 187.895 208.668 187.598 209.078C187.301 209.488 187.152 210.096 187.152 210.9ZM198.719 210.197C197.754 209.92 197.051 209.58 196.609 209.178C196.172 208.771 195.953 208.271 195.953 207.678C195.953 207.006 196.221 206.451 196.756 206.014C197.295 205.572 197.994 205.352 198.854 205.352C199.439 205.352 199.961 205.465 200.418 205.691C200.879 205.918 201.234 206.23 201.484 206.629C201.738 207.027 201.865 207.463 201.865 207.936H200.734C200.734 207.42 200.57 207.016 200.242 206.723C199.914 206.426 199.451 206.277 198.854 206.277C198.299 206.277 197.865 206.4 197.553 206.646C197.244 206.889 197.09 207.227 197.09 207.66C197.09 208.008 197.236 208.303 197.529 208.545C197.826 208.783 198.328 209.002 199.035 209.201C199.746 209.4 200.301 209.621 200.699 209.863C201.102 210.102 201.398 210.381 201.59 210.701C201.785 211.021 201.883 211.398 201.883 211.832C201.883 212.523 201.613 213.078 201.074 213.496C200.535 213.91 199.814 214.117 198.912 214.117C198.326 214.117 197.779 214.006 197.271 213.783C196.764 213.557 196.371 213.248 196.094 212.857C195.82 212.467 195.684 212.023 195.684 211.527H196.814C196.814 212.043 197.004 212.451 197.383 212.752C197.766 213.049 198.275 213.197 198.912 213.197C199.506 213.197 199.961 213.076 200.277 212.834C200.594 212.592 200.752 212.262 200.752 211.844C200.752 211.426 200.605 211.104 200.312 210.877C200.02 210.646 199.488 210.42 198.719 210.197ZM204.631 206.125V207.66H205.814V208.498H204.631V212.43C204.631 212.684 204.684 212.875 204.789 213.004C204.895 213.129 205.074 213.191 205.328 213.191C205.453 213.191 205.625 213.168 205.844 213.121V214C205.559 214.078 205.281 214.117 205.012 214.117C204.527 214.117 204.162 213.971 203.916 213.678C203.67 213.385 203.547 212.969 203.547 212.43V208.498H202.393V207.66H203.547V206.125H204.631ZM211 214C210.938 213.875 210.887 213.652 210.848 213.332C210.344 213.855 209.742 214.117 209.043 214.117C208.418 214.117 207.904 213.941 207.502 213.59C207.104 213.234 206.904 212.785 206.904 212.242C206.904 211.582 207.154 211.07 207.654 210.707C208.158 210.34 208.865 210.156 209.775 210.156H210.83V209.658C210.83 209.279 210.717 208.979 210.49 208.756C210.264 208.529 209.93 208.416 209.488 208.416C209.102 208.416 208.777 208.514 208.516 208.709C208.254 208.904 208.123 209.141 208.123 209.418H207.033C207.033 209.102 207.145 208.797 207.367 208.504C207.594 208.207 207.898 207.973 208.281 207.801C208.668 207.629 209.092 207.543 209.553 207.543C210.283 207.543 210.855 207.727 211.27 208.094C211.684 208.457 211.898 208.959 211.914 209.6V212.518C211.914 213.1 211.988 213.562 212.137 213.906V214H211ZM209.201 213.174C209.541 213.174 209.863 213.086 210.168 212.91C210.473 212.734 210.693 212.506 210.83 212.225V210.924H209.98C208.652 210.924 207.988 211.312 207.988 212.09C207.988 212.43 208.102 212.695 208.328 212.887C208.555 213.078 208.846 213.174 209.201 213.174ZM215.084 206.125V207.66H216.268V208.498H215.084V212.43C215.084 212.684 215.137 212.875 215.242 213.004C215.348 213.129 215.527 213.191 215.781 213.191C215.906 213.191 216.078 213.168 216.297 213.121V214C216.012 214.078 215.734 214.117 215.465 214.117C214.98 214.117 214.615 213.971 214.369 213.678C214.123 213.385 214 212.969 214 212.43V208.498H212.846V207.66H214V206.125H215.084ZM220.17 214.117C219.311 214.117 218.611 213.836 218.072 213.273C217.533 212.707 217.264 211.951 217.264 211.006V210.807C217.264 210.178 217.383 209.617 217.621 209.125C217.863 208.629 218.199 208.242 218.629 207.965C219.062 207.684 219.531 207.543 220.035 207.543C220.859 207.543 221.5 207.814 221.957 208.357C222.414 208.9 222.643 209.678 222.643 210.689V211.141H218.348C218.363 211.766 218.545 212.271 218.893 212.658C219.244 213.041 219.689 213.232 220.229 213.232C220.611 213.232 220.936 213.154 221.201 212.998C221.467 212.842 221.699 212.635 221.898 212.377L222.561 212.893C222.029 213.709 221.232 214.117 220.17 214.117ZM220.035 208.434C219.598 208.434 219.23 208.594 218.934 208.914C218.637 209.23 218.453 209.676 218.383 210.25H221.559V210.168C221.527 209.617 221.379 209.191 221.113 208.891C220.848 208.586 220.488 208.434 220.035 208.434ZM233.324 211.293C233.219 212.195 232.885 212.893 232.322 213.385C231.764 213.873 231.02 214.117 230.09 214.117C229.082 214.117 228.273 213.756 227.664 213.033C227.059 212.311 226.756 211.344 226.756 210.133V209.312C226.756 208.52 226.896 207.822 227.178 207.221C227.463 206.619 227.865 206.158 228.385 205.838C228.904 205.514 229.506 205.352 230.189 205.352C231.096 205.352 231.822 205.605 232.369 206.113C232.916 206.617 233.234 207.316 233.324 208.211H232.193C232.096 207.531 231.883 207.039 231.555 206.734C231.23 206.43 230.775 206.277 230.189 206.277C229.471 206.277 228.906 206.543 228.496 207.074C228.09 207.605 227.887 208.361 227.887 209.342V210.168C227.887 211.094 228.08 211.83 228.467 212.377C228.854 212.924 229.395 213.197 230.09 213.197C230.715 213.197 231.193 213.057 231.525 212.775C231.861 212.49 232.084 211.996 232.193 211.293H233.324ZM235.779 208.428C236.26 207.838 236.885 207.543 237.654 207.543C238.994 207.543 239.67 208.299 239.682 209.811V214H238.598V209.805C238.594 209.348 238.488 209.01 238.281 208.791C238.078 208.572 237.76 208.463 237.326 208.463C236.975 208.463 236.666 208.557 236.4 208.744C236.135 208.932 235.928 209.178 235.779 209.482V214H234.695V205H235.779V208.428ZM245.219 214C245.156 213.875 245.105 213.652 245.066 213.332C244.562 213.855 243.961 214.117 243.262 214.117C242.637 214.117 242.123 213.941 241.721 213.59C241.322 213.234 241.123 212.785 241.123 212.242C241.123 211.582 241.373 211.07 241.873 210.707C242.377 210.34 243.084 210.156 243.994 210.156H245.049V209.658C245.049 209.279 244.936 208.979 244.709 208.756C244.482 208.529 244.148 208.416 243.707 208.416C243.32 208.416 242.996 208.514 242.734 208.709C242.473 208.904 242.342 209.141 242.342 209.418H241.252C241.252 209.102 241.363 208.797 241.586 208.504C241.812 208.207 242.117 207.973 242.5 207.801C242.887 207.629 243.311 207.543 243.771 207.543C244.502 207.543 245.074 207.727 245.488 208.094C245.902 208.457 246.117 208.959 246.133 209.6V212.518C246.133 213.1 246.207 213.562 246.355 213.906V214H245.219ZM243.42 213.174C243.76 213.174 244.082 213.086 244.387 212.91C244.691 212.734 244.912 212.506 245.049 212.225V210.924H244.199C242.871 210.924 242.207 211.312 242.207 212.09C242.207 212.43 242.32 212.695 242.547 212.887C242.773 213.078 243.064 213.174 243.42 213.174ZM248.857 207.66L248.893 208.457C249.377 207.848 250.01 207.543 250.791 207.543C252.131 207.543 252.807 208.299 252.818 209.811V214H251.734V209.805C251.73 209.348 251.625 209.01 251.418 208.791C251.215 208.572 250.896 208.463 250.463 208.463C250.111 208.463 249.803 208.557 249.537 208.744C249.271 208.932 249.064 209.178 248.916 209.482V214H247.832V207.66H248.857ZM254.195 210.777C254.195 209.789 254.424 209.004 254.881 208.422C255.338 207.836 255.943 207.543 256.697 207.543C257.471 207.543 258.074 207.816 258.508 208.363L258.561 207.66H259.551V213.848C259.551 214.668 259.307 215.314 258.818 215.787C258.334 216.26 257.682 216.496 256.861 216.496C256.404 216.496 255.957 216.398 255.52 216.203C255.082 216.008 254.748 215.74 254.518 215.4L255.08 214.75C255.545 215.324 256.113 215.611 256.785 215.611C257.312 215.611 257.723 215.463 258.016 215.166C258.312 214.869 258.461 214.451 258.461 213.912V213.367C258.027 213.867 257.436 214.117 256.686 214.117C255.943 214.117 255.342 213.818 254.881 213.221C254.424 212.623 254.195 211.809 254.195 210.777ZM255.285 210.9C255.285 211.615 255.432 212.178 255.725 212.588C256.018 212.994 256.428 213.197 256.955 213.197C257.639 213.197 258.141 212.887 258.461 212.266V209.371C258.129 208.766 257.631 208.463 256.967 208.463C256.439 208.463 256.027 208.668 255.73 209.078C255.434 209.488 255.285 210.096 255.285 210.9ZM263.822 214.117C262.963 214.117 262.264 213.836 261.725 213.273C261.186 212.707 260.916 211.951 260.916 211.006V210.807C260.916 210.178 261.035 209.617 261.273 209.125C261.516 208.629 261.852 208.242 262.281 207.965C262.715 207.684 263.184 207.543 263.688 207.543C264.512 207.543 265.152 207.814 265.609 208.357C266.066 208.9 266.295 209.678 266.295 210.689V211.141H262C262.016 211.766 262.197 212.271 262.545 212.658C262.896 213.041 263.342 213.232 263.881 213.232C264.264 213.232 264.588 213.154 264.854 212.998C265.119 212.842 265.352 212.635 265.551 212.377L266.213 212.893C265.682 213.709 264.885 214.117 263.822 214.117ZM263.688 208.434C263.25 208.434 262.883 208.594 262.586 208.914C262.289 209.23 262.105 209.676 262.035 210.25H265.211V210.168C265.18 209.617 265.031 209.191 264.766 208.891C264.5 208.586 264.141 208.434 263.688 208.434ZM269.512 206.723H268.58L267.068 205H268.375L269.512 206.723Z" fill="black"/>
<path d="M300.452 75.7864C300.334 75.5367 300.036 75.43 299.786 75.5479L295.718 77.47C295.468 77.5879 295.361 77.886 295.479 78.1357C295.597 78.3853 295.895 78.4921 296.145 78.3742L299.761 76.6657L301.47 80.2824C301.588 80.5321 301.886 80.6389 302.136 80.5209C302.385 80.403 302.492 80.105 302.374 79.8553L300.452 75.7864ZM257.471 196.169L300.471 76.1687L299.529 75.8313L256.529 195.831L257.471 196.169Z" fill="black"/>
</svg>
